<svg
  xmlns="http://www.w3.org/2000/svg"
  viewBox="0 0 24 24"
  width="50"
  height="50"
  className="icon-gradient"
>
  <defs>
    <linearGradient id="icon-gradient" x1="0%" y1="0%" x2="100%" y2="0%">
      <stop offset="0%" stop-color="red" />
      <stop offset="100%" stop-color="blue" />
    </linearGradient>
  </defs>
  <path
    d="M4.98 3.5C4.98 4.88 3.87 6 2.5 6S0 4.88 0 3.5 1.12 1 2.5 1 4.98 2.12 4.98 3.5ZM.25 8.02H4.75V24H.25V8.02ZM24 14.5C24 9.81 21.64 7 16.91 7C14.41 7 12.73 8.07 11.94 9.32H11.89V8.25H7.64V24H12V15.54C12 13.41 12.44 11.5 14.91 11.5C17.34 11.5 17.5 13.68 17.5 15.66V24H22V14.5H24Z"
    fill="url(#icon-gradient)"
  />
</svg>
